<?xml version="1.0" encoding="UTF-8" standalone="no"?>
<svg width="18px" height="18px" viewBox="0 0 18 18" version="1.1" xmlns="http://www.w3.org/2000/svg" xmlns:xlink="http://www.w3.org/1999/xlink">
    <!-- Generator: Sketch 46.1 (44463) - http://www.bohemiancoding.com/sketch -->
    <title>Combined Shape</title>
    <desc>Created with Sketch.</desc>
    <defs/>
    <g id="homepage" stroke="none" stroke-width="1" fill="none" fill-rule="evenodd">
        <path d="M0.5625,0 L17.4375,0 C17.7481602,-5.70673477e-17 18,0.251839828 18,0.5625 L18,17.4375 C18,17.7481602 17.7481602,18 17.4375,18 L0.5625,18 C0.251839828,18 3.80448985e-17,17.7481602 0,17.4375 L0,0.5625 L0,0.5625 C-3.80448985e-17,0.251839828 0.251839828,5.70673477e-17 0.5625,0 L0.5625,0 Z M7.32,4.45 L7.32,5.2375 L10.63875,5.2375 L10.63875,12.78625 C10.63875,13.135 10.47,13.315 10.1325,13.315 C9.705,13.315 9.24375,13.2925 8.77125,13.25875 L8.94,14.04625 L10.41375,14.04625 C11.11125,14.04625 11.47125,13.68625 11.47125,12.98875 L11.47125,5.2375 L13.83375,5.2375 L13.83375,4.45 L7.32,4.45 Z M4.83375,3.91 L4.26,4.46125 C5.07,5.06875 5.7225,5.65375 6.195,6.205 L6.74625,5.6425 C6.22875,5.0575 5.5875,4.48375 4.83375,3.91 Z M3.50625,7.25125 L3.50625,8.0275 L5.16,8.0275 L5.16,12.51625 C5.16,12.69625 5.07,12.85375 4.90125,13 L5.205,13.72 C6.0375,13.2025 6.825,12.6175 7.55625,11.95375 L7.3425,11.09875 C6.83625,11.56 6.36375,11.95375 5.93625,12.29125 L5.93625,7.25125 L3.50625,7.25125 Z" id="Combined-Shape" fill="#7EC157"/>
    </g>
</svg>