<?xml version="1.0" encoding="UTF-8" standalone="no"?>
<svg width="18px" height="18px" viewBox="0 0 18 18" version="1.1" xmlns="http://www.w3.org/2000/svg" xmlns:xlink="http://www.w3.org/1999/xlink">
    <!-- Generator: Sketch 46.1 (44463) - http://www.bohemiancoding.com/sketch -->
    <title>Combined Shape</title>
    <desc>Created with Sketch.</desc>
    <defs/>
    <g id="homepage" stroke="none" stroke-width="1" fill="none" fill-rule="evenodd">
        <path d="M0.5625,0 L17.4375,0 C17.7481602,-5.70673477e-17 18,0.251839828 18,0.5625 L18,17.4375 C18,17.7481602 17.7481602,18 17.4375,18 L0.5625,18 C0.251839828,18 3.80448985e-17,17.7481602 0,17.4375 L0,0.5625 L0,0.5625 C-3.80448985e-17,0.251839828 0.251839828,5.70673477e-17 0.5625,0 L0.5625,0 Z M13.55625,4.10379883 L4.44375,4.10379883 L4.44375,13.9362988 L5.23125,13.9362988 L5.23125,13.4300488 L12.76875,13.4300488 L12.76875,13.9362988 L13.55625,13.9362988 L13.55625,4.10379883 Z M5.23125,12.6875488 L5.23125,4.84629883 L12.76875,4.84629883 L12.76875,12.6875488 L5.23125,12.6875488 Z M6.08625,6.79254883 L6.08625,7.52379883 L9.23625,7.52379883 C8.415,8.76129883 7.30125,9.75129883 5.895,10.4712988 L6.3225,11.1912988 C7.8075,10.3250488 8.98875,9.14379883 9.86625,7.63629883 L9.86625,10.7300488 C9.86625,11.0675488 9.70875,11.2362988 9.41625,11.2362988 C9.045,11.2362988 8.65125,11.2137988 8.235,11.1800488 L8.40375,11.9337988 L9.68625,11.9337988 C10.31625,11.9337988 10.6425,11.5962988 10.6425,10.9325488 L10.6425,7.52379883 L12.0375,7.52379883 L12.0375,6.79254883 L10.6425,6.79254883 L10.6425,5.42004883 L9.86625,5.42004883 L9.86625,6.79254883 L6.08625,6.79254883 Z" id="Combined-Shape" fill="#FF6633"/>
    </g>
</svg>